<svg width="16" height="16" viewBox="0 0 16 16" fill="none" xmlns="http://www.w3.org/2000/svg">
<g clip-path="url(#clip0_13_168)">
<path d="M5.02862 2.2173C5.94786 1.74507 6.96656 1.49915 8 1.5C9.60748 1.49999 11.158 2.09554 12.3521 3.17167C13.5462 4.24779 14.2993 5.72818 14.466 7.327C14.4752 7.42569 14.5039 7.52157 14.5504 7.60911C14.5968 7.69665 14.6602 7.77411 14.7368 7.83701C14.8134 7.89991 14.9017 7.947 14.9966 7.97556C15.0915 8.00412 15.1912 8.01359 15.2898 8.00341C15.3884 7.99324 15.484 7.96362 15.571 7.91627C15.6581 7.86893 15.7349 7.80479 15.7971 7.72757C15.8592 7.65035 15.9054 7.56158 15.933 7.46639C15.9607 7.37121 15.9692 7.27149 15.958 7.173C15.7926 5.57905 15.1523 4.07152 14.12 2.84574C13.0878 1.61996 11.7112 0.732444 10.1687 0.298181C8.6261 -0.136082 6.98868 -0.097071 5.46856 0.41016C3.94844 0.91739 2.61569 1.86946 1.643 3.143L0.427 1.927C0.392036 1.89195 0.34745 1.86806 0.298896 1.85838C0.250342 1.8487 0.200005 1.85365 0.154269 1.87261C0.108532 1.89157 0.069455 1.92368 0.0419907 1.96487C0.0145264 2.00607 -8.77856e-05 2.05449 3.96727e-07 2.104V5.75C3.96727e-07 5.8163 0.02634 5.87989 0.0732241 5.92678C0.120108 5.97366 0.183696 6 0.25 6H3.896C3.94551 6.00009 3.99393 5.98547 4.03513 5.95801C4.07632 5.93055 4.10843 5.89147 4.12739 5.84573C4.14635 5.8 4.1513 5.74966 4.14162 5.70111C4.13194 5.65255 4.10805 5.60797 4.073 5.573L2.715 4.215C3.31618 3.37442 4.10938 2.68953 5.02862 2.2173Z" fill="#24292E"/>
<path d="M1.26173 8.1688C1.10758 8.04316 0.909844 7.98388 0.712 8.004C0.613948 8.01399 0.518827 8.04322 0.432076 8.09C0.345325 8.13678 0.268645 8.2002 0.20642 8.27663C0.144195 8.35307 0.0976462 8.44102 0.0694339 8.53545C0.0412216 8.62989 0.0318996 8.72896 0.0420008 8.827C0.207905 10.4207 0.848479 11.9278 1.88076 13.1533C2.91305 14.3787 4.28948 15.266 5.83181 15.7002C7.37414 16.1344 9.01131 16.0955 10.5313 15.5886C12.0513 15.0817 13.384 14.1301 14.357 12.857L15.573 14.073C15.608 14.1081 15.6525 14.1319 15.7011 14.1416C15.7497 14.1513 15.8 14.1464 15.8457 14.1274C15.8915 14.1084 15.9305 14.0763 15.958 14.0351C15.9855 13.9939 16.0001 13.9455 16 13.896V10.25C16 10.1837 15.9737 10.1201 15.9268 10.0732C15.8799 10.0263 15.8163 10 15.75 10H12.104C12.0545 9.99991 12.0061 10.0145 11.9649 10.042C11.9237 10.0695 11.8916 10.1085 11.8726 10.1543C11.8536 10.2 11.8487 10.2503 11.8584 10.2989C11.8681 10.3475 11.8919 10.392 11.927 10.427L13.285 11.785C12.517 12.8573 11.4409 13.6705 10.1998 14.1169C8.95868 14.5632 7.61115 14.6214 6.33613 14.2839C5.06111 13.9463 3.91892 13.2289 3.06121 12.227C2.20351 11.225 1.67087 9.98583 1.534 8.674C1.51381 8.47616 1.41587 8.29444 1.26173 8.1688Z" fill="#24292E"/>
<path d="M9.06066 9.06066C8.77936 9.34196 8.39782 9.5 8 9.5C7.60218 9.5 7.22064 9.34196 6.93934 9.06066C6.65804 8.77936 6.5 8.39782 6.5 8C6.5 7.60218 6.65804 7.22064 6.93934 6.93934C7.22064 6.65804 7.60218 6.5 8 6.5C8.39782 6.5 8.77936 6.65804 9.06066 6.93934C9.34196 7.22064 9.5 7.60218 9.5 8C9.5 8.39782 9.34196 8.77936 9.06066 9.06066Z" fill="#24292E"/>
</g>
<defs>
<clipPath id="clip0_13_168">
<rect width="16" height="16" fill="white"/>
</clipPath>
</defs>
</svg>
