<svg width="16" height="16" viewBox="0 0 16 16" fill="none" xmlns="http://www.w3.org/2000/svg">
<g clip-path="url(#clip0_2246_19)">
<path fill-rule="evenodd" clip-rule="evenodd" d="M6.749 0.0970175C7.57791 -0.0333157 8.42209 -0.0333157 9.251 0.0970175C9.34831 0.112317 9.44166 0.146632 9.5257 0.198005C9.60975 0.249379 9.68286 0.316803 9.74085 0.396429C9.79884 0.476056 9.84057 0.566324 9.86368 0.662081C9.88678 0.757838 9.8908 0.857208 9.8755 0.954518C9.8602 1.05183 9.82589 1.14517 9.77451 1.22922C9.72314 1.31327 9.65572 1.38637 9.57609 1.44436C9.49646 1.50235 9.40619 1.54409 9.31044 1.56719C9.21468 1.5903 9.11531 1.59432 9.018 1.57902C8.34348 1.47296 7.65653 1.47296 6.982 1.57902C6.78548 1.60992 6.58473 1.56148 6.42391 1.44436C6.2631 1.32725 6.1554 1.15104 6.1245 0.954518C6.0936 0.757992 6.14204 0.557242 6.25916 0.396429C6.37627 0.235617 6.55248 0.127915 6.749 0.0970175ZM4.345 1.69302C4.46183 1.85379 4.51007 2.05435 4.47913 2.25066C4.44819 2.44696 4.34061 2.62297 4.18 2.74002C3.62778 3.14191 3.14189 3.62779 2.74 4.18002C2.62089 4.33531 2.4458 4.4379 2.2521 4.46587C2.0584 4.49385 1.86144 4.445 1.70325 4.32976C1.54507 4.21452 1.4382 4.04201 1.40546 3.84905C1.37272 3.6561 1.41669 3.45799 1.528 3.29702C2.0217 2.61833 2.61859 2.0211 3.297 1.52702C3.3767 1.46907 3.46704 1.42739 3.56285 1.40437C3.65866 1.38135 3.75807 1.37744 3.8554 1.39285C3.95273 1.40827 4.04606 1.44271 4.13007 1.49422C4.21408 1.54572 4.28711 1.61327 4.345 1.69302ZM11.655 1.69302C11.713 1.61335 11.7861 1.54589 11.8701 1.49448C11.9541 1.44307 12.0475 1.40872 12.1448 1.3934C12.2421 1.37807 12.3415 1.38208 12.4373 1.40518C12.5331 1.42827 12.6234 1.47002 12.703 1.52802C13.3817 2.02169 13.9789 2.61858 14.473 3.29702C14.5901 3.458 14.6384 3.65891 14.6074 3.85554C14.5764 4.05218 14.4685 4.22842 14.3075 4.34552C14.1465 4.46261 13.9456 4.51096 13.749 4.47992C13.5523 4.44888 13.3761 4.341 13.259 4.18002C12.8574 3.62787 12.3719 3.14199 11.82 2.74002C11.6594 2.62297 11.5518 2.44696 11.5209 2.25066C11.4899 2.05435 11.5382 1.85379 11.655 1.69302ZM0.955002 6.12502C1.15135 6.15601 1.32736 6.26369 1.44436 6.42438C1.56137 6.58507 1.60979 6.78564 1.579 6.98202C1.47294 7.65654 1.47294 8.34349 1.579 9.01802C1.6099 9.21454 1.56146 9.41529 1.44435 9.57611C1.32723 9.73692 1.15103 9.84462 0.954502 9.87552C0.757977 9.90641 0.557227 9.85798 0.396414 9.74086C0.235602 9.62374 0.1279 9.44754 0.0970023 9.25102C-0.033331 8.42211 -0.033331 7.57793 0.0970023 6.74902C0.112345 6.6517 0.146711 6.55835 0.198138 6.47432C0.249566 6.39029 0.317046 6.31721 0.396724 6.25926C0.476402 6.20131 0.566716 6.15963 0.662508 6.1366C0.758299 6.11356 0.85769 6.10963 0.955002 6.12502ZM15.045 6.12502C15.1423 6.10963 15.2417 6.11356 15.3375 6.1366C15.4333 6.15963 15.5236 6.20131 15.6033 6.25926C15.683 6.31721 15.7504 6.39029 15.8019 6.47432C15.8533 6.55835 15.8877 6.6517 15.903 6.74902C16.0333 7.57793 16.0333 8.42211 15.903 9.25102C15.8721 9.44754 15.7644 9.62374 15.6036 9.74086C15.4428 9.85798 15.242 9.90641 15.0455 9.87552C14.849 9.84462 14.6728 9.73692 14.5557 9.57611C14.4385 9.41529 14.3901 9.21454 14.421 9.01802C14.5271 8.3435 14.5271 7.65654 14.421 6.98202C14.3902 6.78564 14.4386 6.58507 14.5556 6.42438C14.6726 6.26369 14.8487 6.15601 15.045 6.12502ZM1.693 11.655C1.77264 11.597 1.86293 11.5553 1.9587 11.5322C2.05448 11.5091 2.15386 11.5051 2.25119 11.5204C2.34851 11.5357 2.44186 11.5701 2.5259 11.6215C2.60995 11.6729 2.68304 11.7404 2.741 11.82C3.14259 12.3722 3.62813 12.858 4.18 13.26C4.3353 13.3791 4.43788 13.5542 4.46586 13.7479C4.49383 13.9416 4.44499 14.1386 4.32974 14.2968C4.2145 14.4549 4.04199 14.5618 3.84904 14.5946C3.65609 14.6273 3.45798 14.5833 3.297 14.472C2.61829 13.9783 2.02106 13.3815 1.527 12.703C1.46905 12.6233 1.42738 12.533 1.40436 12.4372C1.38134 12.3414 1.37742 12.2419 1.39284 12.1446C1.40825 12.0473 1.4427 11.954 1.4942 11.8699C1.54571 11.7859 1.61326 11.7129 1.693 11.655ZM14.307 11.655C14.3867 11.713 14.4541 11.7861 14.5055 11.8701C14.557 11.9542 14.5913 12.0475 14.6066 12.1448C14.6219 12.2422 14.6179 12.3415 14.5948 12.4373C14.5717 12.5331 14.53 12.6234 14.472 12.703C13.9784 13.3818 13.3815 13.979 12.703 14.473C12.6233 14.531 12.5329 14.5727 12.4371 14.5958C12.3413 14.6188 12.2418 14.6228 12.1445 14.6074C12.0471 14.5921 11.9537 14.5577 11.8697 14.5062C11.7856 14.4547 11.7125 14.3872 11.6545 14.3075C11.5965 14.2278 11.5548 14.1375 11.5318 14.0416C11.5087 13.9458 11.5047 13.8464 11.5201 13.749C11.5355 13.6516 11.5699 13.5582 11.6213 13.4742C11.6728 13.3901 11.7403 13.317 11.82 13.259C12.3721 12.8574 12.858 12.3719 13.26 11.82C13.377 11.6594 13.5531 11.5518 13.7494 11.5209C13.9457 11.49 14.1462 11.5382 14.307 11.655ZM6.125 15.045C6.156 14.8487 6.26367 14.6727 6.42436 14.5557C6.58506 14.4387 6.78562 14.3902 6.982 14.421C7.65652 14.5271 8.34348 14.5271 9.018 14.421C9.11531 14.4057 9.21468 14.4097 9.31044 14.4328C9.40619 14.4559 9.49646 14.4977 9.57609 14.5557C9.65572 14.6137 9.72314 14.6868 9.77451 14.7708C9.82589 14.8549 9.8602 14.9482 9.8755 15.0455C9.8908 15.1428 9.88678 15.2422 9.86368 15.338C9.84057 15.4337 9.79884 15.524 9.74085 15.6036C9.68286 15.6832 9.60975 15.7507 9.5257 15.802C9.44166 15.8534 9.34831 15.8877 9.251 15.903C8.42209 16.0333 7.57791 16.0333 6.749 15.903C6.65168 15.8877 6.55834 15.8533 6.4743 15.8019C6.39027 15.7505 6.31719 15.683 6.25924 15.6033C6.2013 15.5236 6.15962 15.4333 6.13658 15.3375C6.11355 15.2417 6.10961 15.1423 6.125 15.045Z" fill="#24292E"/>
</g>
<defs>
<clipPath id="clip0_2246_19">
<rect width="16" height="16" fill="white"/>
</clipPath>
</defs>
</svg>
