<svg width="24" height="24" viewBox="0 0 24 24" fill="none" xmlns="http://www.w3.org/2000/svg">
<path fill-rule="evenodd" clip-rule="evenodd" d="M22.2887 4.5H1.72606C0.780481 4.5 0 5.28048 0 6.22606V17.7682C0 18.7288 0.780481 19.5092 1.72606 19.5092H22.2737C23.2343 19.5092 23.9998 18.7288 23.9998 17.7832V6.22606C24.0148 5.28048 23.2343 4.5 22.2887 4.5ZM13.508 16.507H10.5062V12.0042L8.25476 14.886L6.00338 12.0042V16.507H3.00153V7.50143H6.00338L8.25476 10.5033L10.5062 7.50143H13.508V16.507ZM17.9966 17.2574L14.2593 12.0042H16.5107V7.50143H19.5126V12.0042H21.764L17.9966 17.2574Z" fill="#24292E"/>
</svg>
