<svg width="24" height="24" viewBox="0 0 24 24" fill="none" xmlns="http://www.w3.org/2000/svg">
<path fill-rule="evenodd" clip-rule="evenodd" d="M9.00156 2.5C9.3049 2.50063 9.578 2.68394 9.6935 2.96443L15.9953 18.2688L18.5551 11.9677C18.67 11.6849 18.9448 11.5 19.25 11.5H23.25C23.6642 11.5 24 11.8358 24 12.25C24 12.6642 23.6642 13 23.25 13H19.7548L16.6948 20.5323C16.5802 20.8144 16.3063 20.9993 16.0018 21C15.6972 21.0007 15.4224 20.8172 15.3065 20.5355L8.99589 5.20983L5.9423 12.5384C5.82585 12.8179 5.55277 13 5.24999 13H0.749999C0.335786 13 0 12.6642 0 12.25C0 11.8358 0.335786 11.5 0.749999 11.5H4.74999L8.30768 2.96153C8.42435 2.68152 8.69821 2.49936 9.00156 2.5Z" fill="#24292E"/>
</svg>
